<?xml version="1.0" standalone="no"?>
<!DOCTYPE svg PUBLIC "-//W3C//DTD SVG 20010904//EN"
 "http://www.w3.org/TR/2001/REC-SVG-20010904/DTD/svg10.dtd">
<svg version="1.0" xmlns="http://www.w3.org/2000/svg"
 width="512.000000pt" height="512.000000pt" viewBox="0 0 512.000000 512.000000"
 preserveAspectRatio="xMidYMid meet">
<metadata>
Created by potrace 1.14, written by Peter Selinger 2001-2017
</metadata>
<g transform="translate(0.000000,512.000000) scale(0.100000,-0.100000)"
fill="#000000" stroke="none">
<path d="M3130 4975 l0 -145 -145 0 -145 0 0 -140 0 -140 -140 0 -140 0 0
-145 0 -145 -140 0 -140 0 0 -140 0 -140 -145 0 -145 0 0 -140 0 -140 -140 0
-140 0 0 -145 0 -145 -145 0 -145 0 0 -140 0 -140 -140 0 -140 0 0 -145 0
-145 -140 0 -140 0 0 -140 0 -140 -145 0 -145 0 0 -285 0 -285 710 0 710 0 0
-140 0 -140 -140 0 -140 0 0 -285 0 -285 -145 0 -145 0 2 -568 3 -567 283 -3
282 -2 0 145 0 145 145 0 145 0 0 140 0 140 140 0 139 0 3 142 3 143 140 2
140 1 3 141 3 141 139 0 140 0 0 140 0 140 140 0 140 0 0 145 0 145 145 0 145
0 0 140 0 140 140 0 139 0 3 142 3 143 140 2 140 1 3 141 3 141 139 0 140 0 0
285 0 285 -710 0 -710 0 0 140 0 140 140 0 140 0 0 285 0 285 145 0 145 0 -2
568 -3 567 -282 3 -283 2 0 -145z m280 -570 l0 -425 -140 0 -140 0 0 -285 0
-285 -145 0 -145 0 2 -282 3 -283 710 -3 710 -2 -3 -140 -3 -140 -140 0 -139
0 0 -140 0 -140 -140 0 -140 0 0 -145 0 -145 -145 0 -145 0 0 -140 0 -140
-140 0 -140 0 0 -145 0 -145 -145 0 -145 0 0 -140 0 -140 -140 0 -140 0 0
-140 0 -140 -140 0 -140 0 0 -145 0 -145 -145 0 -145 0 0 -140 0 -140 -140 0
-140 0 0 425 0 425 140 0 140 0 0 285 0 285 145 0 145 0 -2 283 -3 282 -707 3
-708 2 0 140 0 140 140 0 140 0 0 140 0 139 141 3 141 3 1 140 2 140 143 3
142 3 0 139 0 140 140 0 139 0 3 143 3 142 143 3 142 3 0 139 0 140 140 0 140
0 0 140 0 139 143 3 142 3 3 143 3 142 139 0 140 0 0 140 0 140 140 0 140 0 0
-425z"/>
</g>
</svg>
